<?xml version="1.0" encoding="UTF-8" standalone="no"?><!-- Generator: Gravit.io --><svg xmlns="http://www.w3.org/2000/svg" xmlns:xlink="http://www.w3.org/1999/xlink" style="isolation:isolate" viewBox="0 0 400 370" width="200pt" height="200pt"><defs><clipPath id="_clipPath_aSw8BZlrA3ScgdMVIwFaBcQBl9UegskU"><rect width="400" height="370"/></clipPath></defs><g clip-path="url(#_clipPath_aSw8BZlrA3ScgdMVIwFaBcQBl9UegskU)"><rect width="400" height="370" style="fill:rgb(0,0,0)" fill-opacity="0"/><g filter="url(#Hq12RLIQ9InQRmi2gRHRgRuM5rgmSyU0)"><linearGradient id="_lgradient_4" x1="0" y1="0.5" x2="1" y2="0.5" gradientTransform="matrix(313.443,0,0,339.518,42.397,12.082)" gradientUnits="userSpaceOnUse"><stop offset="0%" stop-opacity="1" style="stop-color:rgb(74,134,232)"/><stop offset="97.91666666666666%" stop-opacity="1" style="stop-color:rgb(105,212,236)"/></linearGradient><path d=" M 199.337 351.6 L 195.83 350.401 C 103.77 323.221 42.397 245.679 42.397 157.345 L 42.397 40.632 L 198.477 12.082 L 355.84 40.632 L 355.84 157.345 C 355.84 245.679 294.466 323.221 202.845 350.401 L 199.337 351.6 Z  M 64.316 56.22 L 64.316 157.745 C 64.316 236.086 124.805 299.539 205.906 325.12 C 286.568 299.539 333.921 236.086 333.921 157.745 L 333.921 56.22 L 201.113 39.123 L 64.316 56.22 Z " fill="url(#_lgradient_4)"/></g><defs><filter id="Hq12RLIQ9InQRmi2gRHRgRuM5rgmSyU0" x="-200%" y="-200%" width="400%" height="400%" filterUnits="objectBoundingBox" color-interpolation-filters="sRGB"><feGaussianBlur xmlns="http://www.w3.org/2000/svg" in="SourceGraphic" stdDeviation="2.146804531419514"/><feOffset xmlns="http://www.w3.org/2000/svg" dx="0" dy="0" result="pf_100_offsetBlur"/><feFlood xmlns="http://www.w3.org/2000/svg" flood-color="#000000" flood-opacity="0.25"/><feComposite xmlns="http://www.w3.org/2000/svg" in2="pf_100_offsetBlur" operator="in" result="pf_100_dropShadow"/><feBlend xmlns="http://www.w3.org/2000/svg" in="SourceGraphic" in2="pf_100_dropShadow" mode="normal"/></filter></defs><defs><filter id="bkzHF0pNUDMrICxgsXCR0J113lsgBvTj" x="-200%" y="-200%" width="400%" height="400%" filterUnits="objectBoundingBox" color-interpolation-filters="sRGB"><feGaussianBlur xmlns="http://www.w3.org/2000/svg" in="SourceGraphic" stdDeviation="2.146804531419514"/><feOffset xmlns="http://www.w3.org/2000/svg" dx="0" dy="0" result="pf_100_offsetBlur"/><feFlood xmlns="http://www.w3.org/2000/svg" flood-color="#000000" flood-opacity="0.25"/><feComposite xmlns="http://www.w3.org/2000/svg" in2="pf_100_offsetBlur" operator="in" result="pf_100_dropShadow"/><feBlend xmlns="http://www.w3.org/2000/svg" in="SourceGraphic" in2="pf_100_dropShadow" mode="normal"/></filter></defs><g filter="url(#bkzHF0pNUDMrICxgsXCR0J113lsgBvTj)"><linearGradient id="_lgradient_5" x1="0" y1="0.5" x2="1" y2="0.5" gradientTransform="matrix(137.169,0,0,171.461,133.094,86.101)" gradientUnits="userSpaceOnUse"><stop offset="0%" stop-opacity="1" style="stop-color:rgb(74,134,232)"/><stop offset="99.16666666666667%" stop-opacity="1" style="stop-color:rgb(105,211,236)"/></linearGradient><path d=" M 133.094 103.248 L 133.094 231.843 C 133.094 241.273 140.81 248.989 150.24 248.989 L 150.24 257.562 L 167.386 257.562 L 167.386 248.989 L 197.392 248.989 L 197.392 86.101 L 150.24 86.101 C 140.81 86.101 133.094 93.817 133.094 103.248 Z  M 167.386 154.686 L 184.532 154.686 L 184.532 180.405 L 167.386 180.405 L 167.386 154.686 Z  M 253.116 86.101 L 205.965 86.101 L 205.965 248.989 L 235.97 248.989 L 235.97 257.562 L 253.116 257.562 L 253.116 248.989 C 262.547 248.989 270.262 241.273 270.262 231.843 L 270.262 103.248 C 270.262 93.817 262.547 86.101 253.116 86.101 Z  M 235.97 180.405 L 218.824 180.405 L 218.824 154.686 L 235.97 154.686 L 235.97 180.405 Z " fill="url(#_lgradient_5)"/></g></g></svg>