<?xml version="1.0" encoding="UTF-8" standalone="no"?><!-- Generator: Gravit.io --><svg xmlns="http://www.w3.org/2000/svg" xmlns:xlink="http://www.w3.org/1999/xlink" style="isolation:isolate" viewBox="0 0 1000 1000" width="200pt" height="200pt"><defs><clipPath id="_clipPath_WFahymGSH7WCjSzvfuZBUeLfxbakE5r1"><rect width="1000" height="1000"/></clipPath></defs><g clip-path="url(#_clipPath_WFahymGSH7WCjSzvfuZBUeLfxbakE5r1)"><defs><filter id="ZCBKRSV7AsYi2GnaN4zBmw5JB9ALvUtn" x="-200%" y="-200%" width="400%" height="400%" filterUnits="objectBoundingBox" color-interpolation-filters="sRGB"><feGaussianBlur xmlns="http://www.w3.org/2000/svg" in="SourceGraphic" stdDeviation="6.440413594258542"/><feOffset xmlns="http://www.w3.org/2000/svg" dx="4" dy="4" result="pf_100_offsetBlur"/><feFlood xmlns="http://www.w3.org/2000/svg" flood-color="#4A86E8" flood-opacity="0.2"/><feComposite xmlns="http://www.w3.org/2000/svg" in2="pf_100_offsetBlur" operator="in" result="pf_100_dropShadow"/><feBlend xmlns="http://www.w3.org/2000/svg" in="SourceGraphic" in2="pf_100_dropShadow" mode="normal"/></filter><linearGradient id="_lgradient_0" x1="0" y1="0.5" x2="1" y2="0.5"><stop offset="2.083333333333333%" style="stop-color:#EBF2FD"/><stop offset="98.75%" style="stop-color:#F0F6FF"/></linearGradient></defs><g filter="url(#ZCBKRSV7AsYi2GnaN4zBmw5JB9ALvUtn)"><path d="M 78.453 343.001 L 360.201 61.253 C 441.125 -19.671 572.525 -19.671 653.449 61.253 L 935.197 343.001 C 1016.121 423.925 1016.121 555.325 935.197 636.249 L 653.449 917.997 C 572.525 998.921 441.125 998.921 360.201 917.997 L 78.453 636.249 C -2.471 555.325 -2.471 423.925 78.453 343.001 Z" style="stroke:none;fill:url(#_lgradient_0);stroke-miterlimit:10;"/></g><defs><filter id="BfA4a9e5k7A4Wy41aQHhLSxKCYjV6e5g" x="-200%" y="-200%" width="400%" height="400%" filterUnits="objectBoundingBox" color-interpolation-filters="sRGB"><feGaussianBlur xmlns="http://www.w3.org/2000/svg" in="SourceGraphic" stdDeviation="2.146804531419514"/><feOffset xmlns="http://www.w3.org/2000/svg" dx="2" dy="2" result="pf_100_offsetBlur"/><feFlood xmlns="http://www.w3.org/2000/svg" flood-color="#000000" flood-opacity="0.2"/><feComposite xmlns="http://www.w3.org/2000/svg" in2="pf_100_offsetBlur" operator="in" result="pf_100_dropShadow"/><feBlend xmlns="http://www.w3.org/2000/svg" in="SourceGraphic" in2="pf_100_dropShadow" mode="normal"/></filter></defs><g filter="url(#BfA4a9e5k7A4Wy41aQHhLSxKCYjV6e5g)"><linearGradient id="_lgradient_1" x1="0.00943396226415083" y1="1.059856727946206" x2="0.968752487859247" y2="-0.03406649948696239" gradientTransform="matrix(508.8,0,0,362.879,254,315)" gradientUnits="userSpaceOnUse"><stop offset="2.9166666666666665%" stop-opacity="1" style="stop-color:rgb(84,148,200)"/><stop offset="98.75%" stop-opacity="1" style="stop-color:rgb(0,195,255)"/></linearGradient><path d=" M 296.4 315 L 720.4 315 C 742.66 315 762.8 334.152 762.8 355.32 L 762.8 637.559 C 762.8 658.727 742.66 677.879 720.4 677.879 L 296.4 677.879 C 274.14 677.879 254 658.727 254 637.559 L 254 355.32 C 254 334.152 274.14 315 296.4 315 Z  M 550.8 375.48 L 550.8 395.64 L 720.4 395.64 L 720.4 375.48 L 550.8 375.48 Z  M 550.8 415.8 L 550.8 435.96 L 709.8 435.96 L 720.4 435.96 L 720.4 415.8 L 550.8 415.8 Z  M 550.8 456.12 L 550.8 476.28 L 699.2 476.28 L 699.2 456.12 L 550.8 456.12 Z  M 423.6 534.945 C 381.2 534.945 296.4 556.919 296.4 597.239 L 296.4 617.399 L 550.8 617.399 L 550.8 597.239 C 550.8 556.919 466 534.945 423.6 534.945 Z  M 423.6 375.48 C 388.475 375.48 360 402.558 360 435.96 C 360 469.362 388.475 496.44 423.6 496.44 C 458.725 496.44 487.2 469.362 487.2 435.96 C 487.2 402.558 458.725 375.48 423.6 375.48 Z " fill="url(#_lgradient_1)"/></g></g></svg>